<svg width="56" height="56" viewBox="0 0 56 56" fill="none" xmlns="http://www.w3.org/2000/svg">
<g clip-path="url(#clip0_9_17)">
<path d="M49 49.63H17.5V48.37H49V49.63ZM33.25 44.38H1.75V43.12H33.25V44.38ZM9.85425 35.63C4.78975 35.5635 1.12 32.1037 1.12 27.4015C1.12 22.5592 5.03825 18.62 9.85425 18.62C11.0635 18.62 12.264 18.8737 13.3717 19.3585C14.504 12.117 20.8285 6.37 27.8722 6.37C33.614 6.37 38.9532 10.0187 41.328 15.5102C42.3762 15.2425 43.6187 15.12 44.4972 15.12C50.2215 15.12 54.8817 19.7785 54.8817 25.5045C54.8817 31.1185 50.3247 35.567 44.5042 35.6317L9.85425 35.63ZM9.85425 19.88C5.733 19.88 2.38 23.254 2.38 27.4015C2.38 31.3827 5.5265 34.314 9.863 34.3682H44.4972C49.6107 34.314 53.62 30.4185 53.62 25.5027C53.62 20.4715 49.5285 16.3782 44.4972 16.3782C43.3842 16.3782 42.014 16.5795 41.1635 16.8682C40.8432 16.9785 40.4985 16.814 40.3742 16.5007C38.3092 11.1947 33.285 7.62825 27.8722 7.62825C21.1715 7.62825 15.1795 13.349 14.5127 20.3805C14.4917 20.594 14.3657 20.7812 14.1767 20.881C13.986 20.9807 13.7585 20.9737 13.5747 20.8687C12.439 20.223 11.1527 19.88 9.85425 19.88Z" fill="white"/>
</g>
<defs>
<clipPath id="clip0_9_17">
<rect width="56" height="56" fill="white"/>
</clipPath>
</defs>
</svg>
