<svg width="245" height="240" viewBox="0 0 245 240" fill="none" xmlns="http://www.w3.org/2000/svg">
<g filter="url(#filter0_f_11_52)">
<rect x="77.5677" y="77.4516" width="89.8064" height="84.5677" rx="42.2839" fill="#FFEF9A"/>
</g>
<g filter="url(#filter1_i_11_52)">
<path d="M161.387 126.471C161.387 147.964 143.964 165.387 122.471 165.387C100.978 165.387 83.5548 147.964 83.5548 126.471C83.5548 104.978 100.978 87.5548 122.471 87.5548C143.964 87.5548 161.387 104.978 161.387 126.471Z" fill="url(#paint0_linear_11_52)"/>
</g>
<g filter="url(#filter2_b_11_52)">
<g filter="url(#filter3_i_11_52)">
<path d="M144.67 146.538C144.941 145.003 145.082 143.423 145.082 141.81C145.082 126.725 132.739 114.497 117.514 114.497C106.195 114.497 96.4692 121.255 92.2235 130.921C88.784 127.979 84.3207 126.203 79.4434 126.203C68.568 126.203 59.7518 135.034 59.7518 145.929C59.7518 146.536 59.7792 147.136 59.8327 147.729C54.6018 150.267 51 155.594 51 161.754C51 170.373 58.053 177.361 66.7533 177.361H141.144C149.844 177.361 156.897 170.373 156.897 161.754C156.897 154.335 151.673 148.125 144.67 146.538Z" fill="url(#paint1_linear_11_52)"/>
</g>
</g>
<defs>
<filter id="filter0_f_11_52" x="0.567749" y="0.451599" width="243.806" height="238.568" filterUnits="userSpaceOnUse" color-interpolation-filters="sRGB">
<feFlood flood-opacity="0" result="BackgroundImageFix"/>
<feBlend mode="normal" in="SourceGraphic" in2="BackgroundImageFix" result="shape"/>
<feGaussianBlur stdDeviation="38.5" result="effect1_foregroundBlur_11_52"/>
</filter>
<filter id="filter1_i_11_52" x="83.5548" y="87.5548" width="77.8323" height="82.8323" filterUnits="userSpaceOnUse" color-interpolation-filters="sRGB">
<feFlood flood-opacity="0" result="BackgroundImageFix"/>
<feBlend mode="normal" in="SourceGraphic" in2="BackgroundImageFix" result="shape"/>
<feColorMatrix in="SourceAlpha" type="matrix" values="0 0 0 0 0 0 0 0 0 0 0 0 0 0 0 0 0 0 127 0" result="hardAlpha"/>
<feOffset dy="5"/>
<feGaussianBlur stdDeviation="9"/>
<feComposite in2="hardAlpha" operator="arithmetic" k2="-1" k3="1"/>
<feColorMatrix type="matrix" values="0 0 0 0 1 0 0 0 0 1 0 0 0 0 1 0 0 0 0.81 0"/>
<feBlend mode="normal" in2="shape" result="effect1_innerShadow_11_52"/>
</filter>
<filter id="filter2_b_11_52" x="24" y="87.4968" width="159.897" height="116.865" filterUnits="userSpaceOnUse" color-interpolation-filters="sRGB">
<feFlood flood-opacity="0" result="BackgroundImageFix"/>
<feGaussianBlur in="BackgroundImageFix" stdDeviation="13.5"/>
<feComposite in2="SourceAlpha" operator="in" result="effect1_backgroundBlur_11_52"/>
<feBlend mode="normal" in="SourceGraphic" in2="effect1_backgroundBlur_11_52" result="shape"/>
</filter>
<filter id="filter3_i_11_52" x="51" y="114.497" width="105.897" height="72.8645" filterUnits="userSpaceOnUse" color-interpolation-filters="sRGB">
<feFlood flood-opacity="0" result="BackgroundImageFix"/>
<feBlend mode="normal" in="SourceGraphic" in2="BackgroundImageFix" result="shape"/>
<feColorMatrix in="SourceAlpha" type="matrix" values="0 0 0 0 0 0 0 0 0 0 0 0 0 0 0 0 0 0 127 0" result="hardAlpha"/>
<feOffset dy="11"/>
<feGaussianBlur stdDeviation="5"/>
<feComposite in2="hardAlpha" operator="arithmetic" k2="-1" k3="1"/>
<feColorMatrix type="matrix" values="0 0 0 0 1 0 0 0 0 1 0 0 0 0 1 0 0 0 1 0"/>
<feBlend mode="normal" in2="shape" result="effect1_innerShadow_11_52"/>
</filter>
<linearGradient id="paint0_linear_11_52" x1="116.56" y1="147.653" x2="148.579" y2="91.4957" gradientUnits="userSpaceOnUse">
<stop stop-color="#FF9900"/>
<stop offset="1" stop-color="#FFEE94"/>
</linearGradient>
<linearGradient id="paint1_linear_11_52" x1="57.7355" y1="171.748" x2="164.568" y2="91.858" gradientUnits="userSpaceOnUse">
<stop stop-color="white"/>
<stop offset="1" stop-color="white" stop-opacity="0.58"/>
</linearGradient>
</defs>
</svg>
